<?xml version="1.0" encoding="UTF-8" standalone="no"?>
<!-- Created with Inkscape (http://www.inkscape.org/) -->
<svg
   xmlns:dc="http://purl.org/dc/elements/1.1/"
   xmlns:cc="http://web.resource.org/cc/"
   xmlns:rdf="http://www.w3.org/1999/02/22-rdf-syntax-ns#"
   xmlns:svg="http://www.w3.org/2000/svg"
   xmlns="http://www.w3.org/2000/svg"
   xmlns:xlink="http://www.w3.org/1999/xlink"
   xmlns:sodipodi="http://sodipodi.sourceforge.net/DTD/sodipodi-0.dtd"
   xmlns:inkscape="http://www.inkscape.org/namespaces/inkscape"
   id="svg1"
   sodipodi:version="0.32"
   inkscape:version="0.45.1"
   width="80.000000pt"
   height="80.000000pt"
   sodipodi:docbase="/home/elian/Desktop"
   sodipodi:docname="PetrJ_snow_flake2.svg"
   inkscape:output_extension="org.inkscape.output.svg.inkscape">
  <metadata
     id="metadata14" />
  <defs
     id="defs3">
    <linearGradient
       inkscape:collect="always"
       id="linearGradient6217">
      <stop
         style="stop-color:#000000;stop-opacity:1;"
         offset="0"
         id="stop6219" />
      <stop
         style="stop-color:#000000;stop-opacity:0;"
         offset="1"
         id="stop6221" />
    </linearGradient>
    <linearGradient
       inkscape:collect="always"
       id="linearGradient6048">
      <stop
         style="stop-color:#000000;stop-opacity:1;"
         offset="0"
         id="stop6050" />
      <stop
         style="stop-color:#000000;stop-opacity:0;"
         offset="1"
         id="stop6052" />
    </linearGradient>
    <linearGradient
       id="linearGradient912">
      <stop
         style="stop-color:#b1f3f3;stop-opacity:1.0000000;"
         offset="0.0000000"
         id="stop913" />
      <stop
         style="stop-color:#ffffff;stop-opacity:1.0000000;"
         offset="0.28319508"
         id="stop855" />
      <stop
         style="stop-color:#e2ffff;stop-opacity:1.0000000;"
         offset="0.43082523"
         id="stop1077" />
      <stop
         style="stop-color:#ffffff;stop-opacity:1.0000000;"
         offset="0.69532084"
         id="stop1078" />
      <stop
         style="stop-color:#bdffff;stop-opacity:1.0000000;"
         offset="1.0000000"
         id="stop914" />
    </linearGradient>
    <radialGradient
       xlink:href="#linearGradient912"
       id="radialGradient915" />
    <linearGradient
       xlink:href="#linearGradient912"
       id="linearGradient854"
       x1="84.717565"
       y1="67.629982"
       x2="7.7171915"
       y2="18.836343"
       gradientTransform="matrix(1.4621003,-0.3917686,0.3615268,1.3492363,-1939.5688,830.55565)"
       gradientUnits="userSpaceOnUse" />
    <linearGradient
       inkscape:collect="always"
       xlink:href="#linearGradient912"
       id="linearGradient2201"
       gradientUnits="userSpaceOnUse"
       gradientTransform="matrix(1.1361945,0.5963772,-0.5503411,1.0484881,-1285.2616,864.92655)"
       x1="84.717567"
       y1="67.629982"
       x2="7.7171917"
       y2="18.836344" />
    <linearGradient
       inkscape:collect="always"
       xlink:href="#linearGradient912"
       id="linearGradient2217"
       gradientUnits="userSpaceOnUse"
       gradientTransform="matrix(0.8174467,0.6608799,-0.6098647,0.7543454,201.20611,238.96827)"
       x1="84.717565"
       y1="67.629982"
       x2="7.7171915"
       y2="18.836343" />
    <linearGradient
       inkscape:collect="always"
       xlink:href="#linearGradient912"
       id="linearGradient5528"
       x1="1153.8033"
       y1="444.70547"
       x2="1387.9719"
       y2="444.70547"
       gradientUnits="userSpaceOnUse" />
    <linearGradient
       inkscape:collect="always"
       xlink:href="#linearGradient912"
       id="linearGradient5530"
       gradientUnits="userSpaceOnUse"
       x1="1153.8033"
       y1="444.70547"
       x2="1387.9719"
       y2="444.70547" />
    <linearGradient
       inkscape:collect="always"
       xlink:href="#linearGradient912"
       id="linearGradient5544"
       gradientUnits="userSpaceOnUse"
       x1="1153.8033"
       y1="444.70547"
       x2="1387.9719"
       y2="444.70547" />
    <linearGradient
       inkscape:collect="always"
       xlink:href="#linearGradient912"
       id="linearGradient5558"
       gradientUnits="userSpaceOnUse"
       x1="1153.8033"
       y1="444.70547"
       x2="1387.9719"
       y2="444.70547" />
    <linearGradient
       inkscape:collect="always"
       xlink:href="#linearGradient912"
       id="linearGradient5572"
       gradientUnits="userSpaceOnUse"
       x1="1153.8033"
       y1="444.70547"
       x2="1387.9719"
       y2="444.70547" />
    <linearGradient
       inkscape:collect="always"
       xlink:href="#linearGradient912"
       id="linearGradient5586"
       gradientUnits="userSpaceOnUse"
       x1="1153.8033"
       y1="444.70547"
       x2="1387.9719"
       y2="444.70547" />
    <linearGradient
       inkscape:collect="always"
       xlink:href="#linearGradient912"
       id="linearGradient5600"
       gradientUnits="userSpaceOnUse"
       x1="1153.8033"
       y1="444.70547"
       x2="1387.9719"
       y2="444.70547" />
    <linearGradient
       inkscape:collect="always"
       xlink:href="#linearGradient912"
       id="linearGradient5614"
       gradientUnits="userSpaceOnUse"
       x1="1153.8033"
       y1="444.70547"
       x2="1387.9719"
       y2="444.70547" />
    <linearGradient
       inkscape:collect="always"
       xlink:href="#linearGradient912"
       id="linearGradient5628"
       gradientUnits="userSpaceOnUse"
       x1="1153.8033"
       y1="444.70547"
       x2="1387.9719"
       y2="444.70547" />
    <linearGradient
       inkscape:collect="always"
       xlink:href="#linearGradient912"
       id="linearGradient5642"
       gradientUnits="userSpaceOnUse"
       x1="1153.8033"
       y1="444.70547"
       x2="1387.9719"
       y2="444.70547" />
    <linearGradient
       inkscape:collect="always"
       xlink:href="#linearGradient912"
       id="linearGradient5656"
       gradientUnits="userSpaceOnUse"
       x1="1153.8033"
       y1="444.70547"
       x2="1387.9719"
       y2="444.70547" />
    <linearGradient
       inkscape:collect="always"
       xlink:href="#linearGradient912"
       id="linearGradient5670"
       gradientUnits="userSpaceOnUse"
       x1="1153.8033"
       y1="444.70547"
       x2="1387.9719"
       y2="444.70547" />
    <linearGradient
       inkscape:collect="always"
       xlink:href="#linearGradient912"
       id="linearGradient5684"
       gradientUnits="userSpaceOnUse"
       x1="1153.8033"
       y1="444.70547"
       x2="1387.9719"
       y2="444.70547" />
    <linearGradient
       inkscape:collect="always"
       xlink:href="#linearGradient912"
       id="linearGradient5698"
       gradientUnits="userSpaceOnUse"
       x1="1153.8033"
       y1="444.70547"
       x2="1387.9719"
       y2="444.70547" />
    <linearGradient
       inkscape:collect="always"
       xlink:href="#linearGradient912"
       id="linearGradient5712"
       gradientUnits="userSpaceOnUse"
       x1="1153.8033"
       y1="444.70547"
       x2="1387.9719"
       y2="444.70547" />
    <linearGradient
       inkscape:collect="always"
       xlink:href="#linearGradient912"
       id="linearGradient5726"
       gradientUnits="userSpaceOnUse"
       x1="1153.8033"
       y1="444.70547"
       x2="1387.9719"
       y2="444.70547" />
    <linearGradient
       inkscape:collect="always"
       xlink:href="#linearGradient912"
       id="linearGradient5740"
       gradientUnits="userSpaceOnUse"
       x1="1153.8033"
       y1="444.70547"
       x2="1387.9719"
       y2="444.70547" />
    <linearGradient
       inkscape:collect="always"
       xlink:href="#linearGradient912"
       id="linearGradient5754"
       gradientUnits="userSpaceOnUse"
       x1="1153.8033"
       y1="444.70547"
       x2="1387.9719"
       y2="444.70547" />
    <linearGradient
       inkscape:collect="always"
       xlink:href="#linearGradient912"
       id="linearGradient5768"
       gradientUnits="userSpaceOnUse"
       x1="1153.8033"
       y1="444.70547"
       x2="1387.9719"
       y2="444.70547" />
    <linearGradient
       inkscape:collect="always"
       xlink:href="#linearGradient912"
       id="linearGradient5782"
       gradientUnits="userSpaceOnUse"
       x1="1153.8033"
       y1="444.70547"
       x2="1387.9719"
       y2="444.70547" />
    <linearGradient
       inkscape:collect="always"
       xlink:href="#linearGradient912"
       id="linearGradient5796"
       gradientUnits="userSpaceOnUse"
       x1="1153.8033"
       y1="444.70547"
       x2="1387.9719"
       y2="444.70547" />
    <linearGradient
       inkscape:collect="always"
       xlink:href="#linearGradient912"
       id="linearGradient5810"
       gradientUnits="userSpaceOnUse"
       x1="1153.8033"
       y1="444.70547"
       x2="1387.9719"
       y2="444.70547" />
    <linearGradient
       inkscape:collect="always"
       xlink:href="#linearGradient912"
       id="linearGradient5824"
       gradientUnits="userSpaceOnUse"
       x1="1153.8033"
       y1="444.70547"
       x2="1387.9719"
       y2="444.70547" />
    <linearGradient
       inkscape:collect="always"
       xlink:href="#linearGradient912"
       id="linearGradient5838"
       gradientUnits="userSpaceOnUse"
       x1="1153.8033"
       y1="444.70547"
       x2="1387.9719"
       y2="444.70547" />
    <linearGradient
       inkscape:collect="always"
       xlink:href="#linearGradient912"
       id="linearGradient5852"
       gradientUnits="userSpaceOnUse"
       x1="1153.8033"
       y1="444.70547"
       x2="1387.9719"
       y2="444.70547" />
    <linearGradient
       inkscape:collect="always"
       xlink:href="#linearGradient6048"
       id="linearGradient6054"
       x1="1253.4601"
       y1="414.01168"
       x2="1295.3236"
       y2="414.01168"
       gradientUnits="userSpaceOnUse" />
    <linearGradient
       inkscape:collect="always"
       xlink:href="#linearGradient6217"
       id="linearGradient6223"
       x1="-912.17361"
       y1="1223.8717"
       x2="-660.89882"
       y2="1223.8717"
       gradientUnits="userSpaceOnUse" />
    <linearGradient
       inkscape:collect="always"
       xlink:href="#linearGradient6217"
       id="linearGradient6535"
       gradientUnits="userSpaceOnUse"
       x1="-912.17361"
       y1="1223.8717"
       x2="-660.89882"
       y2="1223.8717" />
    <linearGradient
       inkscape:collect="always"
       xlink:href="#linearGradient6217"
       id="linearGradient6549"
       gradientUnits="userSpaceOnUse"
       x1="-912.17361"
       y1="1223.8717"
       x2="-660.89882"
       y2="1223.8717" />
    <linearGradient
       inkscape:collect="always"
       xlink:href="#linearGradient6217"
       id="linearGradient6563"
       gradientUnits="userSpaceOnUse"
       x1="-912.17361"
       y1="1223.8717"
       x2="-660.89882"
       y2="1223.8717" />
    <linearGradient
       inkscape:collect="always"
       xlink:href="#linearGradient6217"
       id="linearGradient6577"
       gradientUnits="userSpaceOnUse"
       x1="-912.17361"
       y1="1223.8717"
       x2="-660.89882"
       y2="1223.8717" />
    <linearGradient
       inkscape:collect="always"
       xlink:href="#linearGradient6217"
       id="linearGradient6591"
       gradientUnits="userSpaceOnUse"
       x1="-912.17361"
       y1="1223.8717"
       x2="-660.89882"
       y2="1223.8717" />
    <linearGradient
       inkscape:collect="always"
       xlink:href="#linearGradient6217"
       id="linearGradient6605"
       gradientUnits="userSpaceOnUse"
       x1="-912.17361"
       y1="1223.8717"
       x2="-660.89882"
       y2="1223.8717" />
    <linearGradient
       inkscape:collect="always"
       xlink:href="#linearGradient6217"
       id="linearGradient6619"
       gradientUnits="userSpaceOnUse"
       x1="-912.17361"
       y1="1223.8717"
       x2="-660.89882"
       y2="1223.8717" />
    <linearGradient
       inkscape:collect="always"
       xlink:href="#linearGradient6217"
       id="linearGradient6633"
       gradientUnits="userSpaceOnUse"
       x1="-912.17361"
       y1="1223.8717"
       x2="-660.89882"
       y2="1223.8717" />
    <linearGradient
       inkscape:collect="always"
       xlink:href="#linearGradient6217"
       id="linearGradient6647"
       gradientUnits="userSpaceOnUse"
       x1="-912.17361"
       y1="1223.8717"
       x2="-660.89882"
       y2="1223.8717" />
    <linearGradient
       inkscape:collect="always"
       xlink:href="#linearGradient6217"
       id="linearGradient6661"
       gradientUnits="userSpaceOnUse"
       x1="-912.17361"
       y1="1223.8717"
       x2="-660.89882"
       y2="1223.8717" />
    <linearGradient
       inkscape:collect="always"
       xlink:href="#linearGradient6217"
       id="linearGradient6675"
       gradientUnits="userSpaceOnUse"
       x1="-912.17361"
       y1="1223.8717"
       x2="-660.89882"
       y2="1223.8717" />
    <linearGradient
       inkscape:collect="always"
       xlink:href="#linearGradient6217"
       id="linearGradient6689"
       gradientUnits="userSpaceOnUse"
       x1="-912.17361"
       y1="1223.8717"
       x2="-660.89882"
       y2="1223.8717" />
    <linearGradient
       inkscape:collect="always"
       xlink:href="#linearGradient6217"
       id="linearGradient6703"
       gradientUnits="userSpaceOnUse"
       x1="-912.17361"
       y1="1223.8717"
       x2="-660.89882"
       y2="1223.8717" />
    <linearGradient
       inkscape:collect="always"
       xlink:href="#linearGradient6217"
       id="linearGradient6717"
       gradientUnits="userSpaceOnUse"
       x1="-912.17361"
       y1="1223.8717"
       x2="-660.89882"
       y2="1223.8717" />
    <linearGradient
       inkscape:collect="always"
       xlink:href="#linearGradient6217"
       id="linearGradient6731"
       gradientUnits="userSpaceOnUse"
       x1="-912.17361"
       y1="1223.8717"
       x2="-660.89882"
       y2="1223.8717" />
    <linearGradient
       inkscape:collect="always"
       xlink:href="#linearGradient6217"
       id="linearGradient6745"
       gradientUnits="userSpaceOnUse"
       x1="-912.17361"
       y1="1223.8717"
       x2="-660.89882"
       y2="1223.8717" />
    <linearGradient
       inkscape:collect="always"
       xlink:href="#linearGradient6217"
       id="linearGradient6759"
       gradientUnits="userSpaceOnUse"
       x1="-912.17361"
       y1="1223.8717"
       x2="-660.89882"
       y2="1223.8717" />
    <linearGradient
       inkscape:collect="always"
       xlink:href="#linearGradient6217"
       id="linearGradient6773"
       gradientUnits="userSpaceOnUse"
       x1="-912.17361"
       y1="1223.8717"
       x2="-660.89882"
       y2="1223.8717" />
    <linearGradient
       inkscape:collect="always"
       xlink:href="#linearGradient6217"
       id="linearGradient6787"
       gradientUnits="userSpaceOnUse"
       x1="-912.17361"
       y1="1223.8717"
       x2="-660.89882"
       y2="1223.8717" />
    <linearGradient
       inkscape:collect="always"
       xlink:href="#linearGradient6217"
       id="linearGradient6801"
       gradientUnits="userSpaceOnUse"
       x1="-912.17361"
       y1="1223.8717"
       x2="-660.89882"
       y2="1223.8717" />
    <linearGradient
       inkscape:collect="always"
       xlink:href="#linearGradient912"
       id="linearGradient11404"
       x1="-1561.9688"
       y1="1309.1406"
       x2="-1316"
       y2="1309.1406"
       gradientUnits="userSpaceOnUse"
       gradientTransform="matrix(0.4020878,-0.2321455,0.2321455,0.4020878,-1104.0311,81.379401)" />
    <linearGradient
       inkscape:collect="always"
       xlink:href="#linearGradient912"
       id="linearGradient11418"
       gradientUnits="userSpaceOnUse"
       gradientTransform="matrix(1.1361945,0.5963772,-0.5503411,1.0484881,-1037.5785,863.4439)"
       x1="84.717567"
       y1="67.629982"
       x2="7.7171917"
       y2="18.836344" />
    <linearGradient
       inkscape:collect="always"
       xlink:href="#linearGradient912"
       id="linearGradient11420"
       gradientUnits="userSpaceOnUse"
       gradientTransform="matrix(0.4020878,-0.2321455,0.2321455,0.4020878,-856.34802,79.896784)"
       x1="-1561.9688"
       y1="1309.1406"
       x2="-1316"
       y2="1309.1406" />
    <linearGradient
       inkscape:collect="always"
       xlink:href="#linearGradient912"
       id="linearGradient11430"
       gradientUnits="userSpaceOnUse"
       gradientTransform="matrix(1.1361945,0.5963772,-0.5503411,1.0484881,-1783.3951,864.18529)"
       x1="84.717567"
       y1="67.629982"
       x2="7.7171917"
       y2="18.836344" />
    <linearGradient
       inkscape:collect="always"
       xlink:href="#linearGradient912"
       id="linearGradient11434"
       gradientUnits="userSpaceOnUse"
       gradientTransform="matrix(1.1361945,0.5963772,-0.5503411,1.0484881,-1535.7119,862.70265)"
       x1="84.717567"
       y1="67.629982"
       x2="7.7171917"
       y2="18.836344" />
    <linearGradient
       inkscape:collect="always"
       xlink:href="#linearGradient912"
       id="linearGradient11436"
       gradientUnits="userSpaceOnUse"
       gradientTransform="matrix(0.4020878,-0.2321455,0.2321455,0.4020878,-1354.4814,79.155483)"
       x1="-1561.9688"
       y1="1309.1406"
       x2="-1316"
       y2="1309.1406" />
    <linearGradient
       inkscape:collect="always"
       xlink:href="#linearGradient912"
       id="linearGradient11454"
       gradientUnits="userSpaceOnUse"
       gradientTransform="matrix(1.1361945,0.5963772,-0.5503411,1.0484881,-274.08853,858.63233)"
       x1="84.717567"
       y1="67.629982"
       x2="7.7171917"
       y2="18.836344" />
    <linearGradient
       inkscape:collect="always"
       xlink:href="#linearGradient912"
       id="linearGradient11456"
       gradientUnits="userSpaceOnUse"
       gradientTransform="matrix(0.4020878,-0.2321455,0.2321455,0.4020878,-92.858031,75.085175)"
       x1="-1561.9688"
       y1="1309.1406"
       x2="-1316"
       y2="1309.1406" />
    <linearGradient
       inkscape:collect="always"
       xlink:href="#linearGradient912"
       id="linearGradient11458"
       gradientUnits="userSpaceOnUse"
       gradientTransform="matrix(1.1361945,0.5963772,-0.5503411,1.0484881,-26.405363,857.14968)"
       x1="84.717567"
       y1="67.629982"
       x2="7.7171917"
       y2="18.836344" />
    <linearGradient
       inkscape:collect="always"
       xlink:href="#linearGradient912"
       id="linearGradient11460"
       gradientUnits="userSpaceOnUse"
       gradientTransform="matrix(0.3042703,-0.1756705,0.1756705,0.3042703,258.35201,-601.11444)"
       x1="-1561.9688"
       y1="1309.1406"
       x2="-1316"
       y2="1309.1406" />
    <linearGradient
       inkscape:collect="always"
       xlink:href="#linearGradient912"
       id="linearGradient11462"
       gradientUnits="userSpaceOnUse"
       gradientTransform="matrix(1.1361945,0.5963772,-0.5503411,1.0484881,-772.22195,857.891)"
       x1="84.717567"
       y1="67.629982"
       x2="7.7171917"
       y2="18.836344" />
    <linearGradient
       inkscape:collect="always"
       xlink:href="#linearGradient912"
       id="linearGradient11464"
       gradientUnits="userSpaceOnUse"
       gradientTransform="matrix(0.4020878,-0.2321455,0.2321455,0.4020878,-590.99146,74.34388)"
       x1="-1561.9688"
       y1="1309.1406"
       x2="-1316"
       y2="1309.1406" />
    <linearGradient
       inkscape:collect="always"
       xlink:href="#linearGradient912"
       id="linearGradient11466"
       gradientUnits="userSpaceOnUse"
       gradientTransform="matrix(1.1361945,0.5963772,-0.5503411,1.0484881,-524.53886,856.40843)"
       x1="84.717567"
       y1="67.629982"
       x2="7.7171917"
       y2="18.836344" />
    <linearGradient
       inkscape:collect="always"
       xlink:href="#linearGradient912"
       id="linearGradient11468"
       gradientUnits="userSpaceOnUse"
       gradientTransform="matrix(0.4020878,-0.2321455,0.2321455,0.4020878,-343.30829,72.861264)"
       x1="-1561.9688"
       y1="1309.1406"
       x2="-1316"
       y2="1309.1406" />
  </defs>
  <sodipodi:namedview
     id="base"
     pagecolor="#ffffff"
     bordercolor="#666666"
     borderopacity="1.0"
     inkscape:pageopacity="0.0"
     inkscape:pageshadow="2"
     inkscape:zoom="4"
     inkscape:cx="-18.36755"
     inkscape:cy="-4.2671343"
     inkscape:window-width="1600"
     inkscape:window-height="1175"
     inkscape:window-x="0"
     inkscape:window-y="0"
     inkscape:current-layer="svg1" />
  <metadata
     id="metadata16">
    <rdf:RDF>
      <cc:Work
         rdf:about="">
        <dc:title>Clipart by Nicu Buculei - w_cloud</dc:title>
        <dc:rights>
          <cc:Agent>
            <dc:title>Nicu Buculei</dc:title>
          </cc:Agent>
        </dc:rights>
        <dc:type
           rdf:resource="http://purl.org/dc/dcmitype/StillImage" />
        <cc:license
           rdf:resource="http://web.resource.org/cc/PublicDomain" />
        <dc:format>image/svg+xml</dc:format>
      </cc:Work>
      <cc:License
         rdf:about="http://web.resource.org/cc/PublicDomain">
        <cc:permits
           rdf:resource="http://web.resource.org/cc/Reproduction" />
        <cc:permits
           rdf:resource="http://web.resource.org/cc/Distribution" />
        <cc:permits
           rdf:resource="http://web.resource.org/cc/DerivativeWorks" />
      </cc:License>
    </rdf:RDF>
  </metadata>
  <path
     style="fill:url(#linearGradient11460);fill-opacity:1;fill-rule:evenodd;stroke:#000000;stroke-width:0.70268226;stroke-linecap:butt;stroke-linejoin:miter;stroke-miterlimit:4;stroke-dasharray:none;stroke-opacity:1"
     d="M 25.322487,8.555921 L 27.380033,12.185671 L 23.371512,11.127638 L 22.725995,13.56687 L 29.119187,15.263859 L 31.14383,18.836444 L 25.162312,16.622885 L 24.280756,18.98278 L 33.075132,22.247448 L 35.028354,25.696445 L 30.711489,28.188784 L 31.974156,30.375692 L 36.271966,27.894342 L 38.985752,32.704554 L 39.65699,33.889139 L 36.899525,35.481126 L 38.162138,37.668085 L 40.900602,36.087028 L 41.97404,37.990164 C 41.401146,38.320944 40.335667,38.936116 40.215,39.005766 L 41.477612,41.192726 C 41.596986,41.123803 42.654284,40.513367 43.217658,40.188112 L 47.806362,48.289696 L 42.556673,44.664736 C 42.852833,44.227864 43.056014,43.926089 43.261542,43.623838 L 41.902356,42.697 C 41.698501,42.996852 41.500624,43.299361 41.207015,43.732382 L 39.713941,42.70543 L 40.866662,41.012966 L 39.507582,40.086128 L 38.364282,41.77312 L 34.043514,38.790923 L 35.71979,36.314363 L 34.366121,35.397106 L 32.693861,37.858562 L 30.271862,36.1888 L 27.114484,29.314694 L 25.626352,30.009095 L 27.639546,34.374322 L 25.053608,32.59638 L 23.752055,28.695101 L 22.19911,29.211302 L 22.810536,31.038856 L 20.72733,29.604602 L 19.80059,30.963788 L 22.20203,32.61996 L 19.831873,32.796648 L 19.954887,34.437154 L 24.372692,34.117883 L 24.55703,34.239595 L 26.759194,35.77005 L 22.863999,35.69888 L 22.834532,37.33866 L 29.201647,37.45329 L 31.767017,39.217694 L 30.202985,41.515334 L 31.562171,42.442119 L 33.116676,40.150004 L 37.437497,43.132254 L 36.456508,44.573378 L 37.815693,45.500216 L 38.787096,44.064615 L 40.28023,45.09156 C 40.090163,45.371995 39.711913,45.927357 39.670006,45.989046 L 41.029184,46.91583 C 41.070622,46.854823 41.442531,46.300301 41.629888,46.023869 L 43.297774,47.178103 L 45.129595,48.440512 L 37.727769,48.378195 C 37.727612,47.383366 37.72407,46.706716 37.72407,46.022152 L 35.200562,46.021213 C 35.200562,46.698544 35.202643,47.368897 35.202795,48.352633 L 33.027865,48.34045 L 33.03031,44.611796 L 30.497322,44.616268 L 30.502891,48.314994 L 23.617123,48.246284 L 23.616496,42.909185 L 21.092979,42.908141 L 21.097671,48.230248 L 17.376926,48.197762 L 8.586244,41.469937 L 7.049545,43.48547 L 13.174122,48.164762 L 8.724823,48.121915 L 4.322063,43.855759 L 2.557037,45.673574 L 5.043639,48.09198 L 1.411498,48.059129 L 1.38589,50.584106 L 5.564221,50.61862 L 2.646573,53.558182 L 4.435814,55.339712 L 9.092872,50.647821 L 13.197649,50.686762 L 8.28733,54.764205 L 9.904249,56.708523 L 17.119858,50.716955 L 20.904586,50.750478 L 21.096628,50.75371 L 21.095636,55.736706 L 23.619152,55.737697 L 23.621595,50.779272 L 30.501854,50.838455 L 30.501068,54.021132 L 33.024582,54.022175 L 33.021358,50.854491 L 33.917533,50.869639 L 35.201758,50.876095 C 35.201864,51.542756 35.201289,52.777415 35.201289,52.9175 L 37.724751,52.918544 C 37.724857,52.779654 37.721316,51.551186 37.72121,50.89213 L 47.215041,50.97652 L 41.65508,54.148465 C 41.389954,53.689262 41.207483,53.373117 41.023773,53.055042 L 39.597542,53.878496 C 39.77964,54.193862 39.960694,54.507509 40.223377,54.962445 L 38.65846,55.853317 L 37.631877,54.075169 L 36.205699,54.898624 L 37.226764,56.667191 L 32.659712,59.253226 L 31.166532,56.666986 L 29.740292,57.490388 L 31.227956,60.067153 L 28.697259,61.502966 L 21.113911,61.367874 L 21.084444,63.007654 L 25.890759,63.097871 L 23.160416,64.64894 L 19.090259,64.120965 L 18.878225,65.75205 L 20.7873,66.006355 L 18.598879,67.24445 L 19.41286,68.676258 L 21.95309,67.235027 L 21.081789,69.436873 L 22.608339,70.038872 L 24.240567,65.926967 L 26.771315,64.491253 L 25.012276,67.96629 L 26.474172,68.719725 L 29.359077,63.02254 L 32.051462,61.493491 L 33.440372,63.899093 L 34.866552,63.075638 L 33.483217,60.679512 L 38.044747,58.084002 L 38.917556,59.595819 L 40.343795,58.772364 L 39.47645,57.270022 L 40.056427,56.935131 L 41.041314,56.37915 C 41.211131,56.673388 41.547481,57.255863 41.584803,57.320571 L 43.011087,56.497116 C 42.974075,56.433037 42.640231,55.854823 42.47307,55.565224 L 48.295192,52.254592 L 43.840217,59.821754 C 42.98209,59.327098 42.398472,58.991376 41.80725,58.650086 L 40.5464,60.836001 C 41.131478,61.173752 41.710313,61.505 42.558914,61.994133 L 42.188571,62.626279 L 41.451951,63.875671 L 38.236532,62.017455 L 36.97569,64.203371 L 40.170595,66.048051 L 36.675315,71.983552 L 32.048133,69.305015 L 30.787185,71.490931 L 35.393906,74.155938 L 33.505708,77.363338 L 23.293115,81.611484 L 24.259515,83.944098 L 31.361903,80.984498 L 30.260458,82.875502 L 29.118408,84.828043 L 23.222264,86.495307 L 23.919473,88.932614 L 27.251761,87.984957 L 25.408179,91.115824 L 27.580559,92.397182 L 29.70531,88.78706 L 30.792232,92.799648 L 33.226984,92.141945 L 31.500324,85.747606 L 33.580457,82.213898 L 34.651656,88.504908 L 37.144614,88.079803 L 35.561892,78.838612 L 37.579876,75.41678 L 41.895749,77.907499 L 43.156591,75.721582 L 38.861179,73.244455 L 42.356512,67.308954 L 45.11866,68.909111 L 46.389029,66.717678 L 43.637868,65.136513 L 44.74483,63.254982 C 45.32262,63.587889 46.391427,64.205143 46.512927,64.275321 L 47.77383,62.089405 C 47.653889,62.020111 46.593307,61.409365 46.026186,61.082596 L 49.397151,55.370995 L 49.530683,58.742329 L 49.545727,59.075917 C 49.016352,59.099815 48.651004,59.11501 48.284983,59.131877 L 48.359014,60.775298 C 48.722219,60.758589 49.085379,60.74854 49.610336,60.724802 L 49.683731,62.520753 L 47.63317,62.614354 L 47.707193,64.257773 L 49.742717,64.16017 L 49.950015,69.415951 L 46.972185,69.550413 L 47.040797,71.184306 L 50.018521,71.049843 L 50.048503,71.958051 L 50.129556,73.965092 L 46.525891,80.63508 L 47.964776,81.414447 L 50.258246,77.174313 L 50.388076,80.319661 L 50.378557,80.325131 L 48.043019,83.702033 L 49.39268,84.634282 L 50.492769,83.048289 L 50.589751,85.565922 L 52.229168,85.506832 L 52.11261,82.582158 L 53.681326,84.376865 L 54.910309,83.299625 L 52.013751,79.951506 L 51.898751,77.051247 L 54.178895,80.210133 L 55.513298,79.249559 L 51.779226,74.077541 L 51.661941,70.975813 L 54.438196,70.843589 L 54.360108,69.215161 L 51.593436,69.34192 L 51.386138,64.086088 L 53.127583,64.006177 L 53.059024,62.372231 L 51.327106,62.446677 L 51.253755,60.650777 C 51.591974,60.635575 52.263107,60.59898 52.337546,60.595545 L 52.263418,58.952177 C 52.189864,58.95556 51.522689,58.986896 51.1892,59.001887 L 50.984513,53.706545 L 52.965159,57.203127 L 55.269769,61.260691 C 54.410817,61.75665 53.827246,62.093568 53.234978,62.435485 L 54.497598,64.62244 C 55.084341,64.283699 55.662911,63.949642 56.513387,63.45858 L 57.586826,65.361767 L 54.363491,67.222791 L 55.626111,69.409699 L 58.83049,67.559664 L 59.600534,68.915407 L 62.215462,73.554462 L 57.584844,76.227899 L 58.847463,78.414913 L 63.459081,75.75235 L 65.301042,78.986666 L 65.306513,78.996193 L 63.864141,89.958623 L 66.372713,90.285186 L 67.365565,82.650407 L 69.560384,86.517742 L 68.057416,92.456684 L 70.519763,93.076234 L 71.365446,89.710104 L 73.153952,92.873827 L 75.351947,91.630209 L 73.294352,88.000562 L 77.302874,89.058548 L 77.948499,86.61937 L 71.555197,84.922329 L 69.530607,81.349686 L 75.517595,83.572825 L 76.393629,81.203404 L 67.604719,77.948263 L 65.645983,74.489784 L 69.962845,71.9974 L 68.700229,69.810447 L 64.40237,72.291789 L 61.017398,66.297043 L 63.774809,64.705006 L 62.512241,62.518097 L 59.773832,64.099156 L 58.700348,62.195967 C 59.273508,61.865028 60.338456,61.250173 60.459442,61.180365 L 59.196767,58.993457 C 59.07719,59.062485 58.020309,59.672657 57.456783,59.998072 L 54.942069,55.554659 L 53.242734,52.567568 L 57.32851,54.747392 C 57.08243,55.214821 56.91163,55.53581 56.741086,55.859877 L 58.183928,56.624246 C 58.354161,56.300965 58.524705,55.978721 58.771405,55.511708 L 60.367144,56.365355 L 59.404278,58.189057 L 60.862163,58.95743 L 61.815501,57.139251 L 66.003674,59.386706 L 66.445959,59.625755 L 65.045495,62.272593 L 66.503379,63.040973 L 67.894317,60.399598 L 68.295634,60.611678 L 70.466195,61.780017 L 74.387155,68.263955 L 75.796991,67.411973 L 73.30695,63.296678 L 73.855694,63.588411 L 76.061706,64.774299 L 77.795604,68.502121 L 79.289148,67.817245 L 78.47111,66.070957 L 80.70164,67.255277 L 81.47548,65.806974 L 78.903659,64.426599 L 81.22915,63.996808 L 80.92502,62.372126 L 76.591189,63.188036 L 76.581662,63.193551 L 74.024831,61.817241 L 77.893525,61.447315 L 77.745992,59.808322 L 71.402511,60.415316 L 68.653168,58.947229 L 69.946916,56.488786 L 68.498556,55.714995 L 67.204861,58.173386 L 62.579923,55.696311 L 63.387395,54.15253 L 61.93903,53.378634 L 61.126041,54.912994 L 59.535721,54.068866 C 59.695224,53.767189 60.008614,53.170033 60.043492,53.103822 L 58.591129,52.344916 C 58.557031,52.409729 58.250407,52.997826 58.096943,53.289506 L 52.669317,50.388415 L 62.566173,50.468326 C 62.56628,51.463049 62.569874,52.139752 62.569821,52.824211 L 65.093335,52.825308 C 65.093335,52.147872 65.091201,51.477579 65.091096,50.493835 L 67.271496,50.515439 L 67.273057,54.229209 L 69.796571,54.2302 L 69.791001,50.531421 L 71.99592,50.551619 L 76.676824,50.600193 L 76.677396,55.93723 L 79.200911,55.938274 L 79.196225,50.616273 L 82.91692,50.648706 L 91.71717,57.371067 L 93.24982,55.37048 L 87.11972,50.681715 L 91.59354,50.723099 L 95.98131,54.985194 L 97.73685,53.172895 L 95.2502,50.75449 L 98.88245,50.787339 L 98.90801,48.262364 L 94.72967,48.22785 L 97.65679,45.28277 L 95.85809,43.506756 L 91.20102,48.198647 L 87.09624,48.159705 L 92.00662,44.082262 L 90.38959,42.137945 L 83.18346,48.123995 L 79.197267,48.092758 L 79.198307,43.109764 L 76.674741,43.108727 L 76.672295,48.067204 L 69.791989,48.007959 L 69.792876,44.825337 L 67.269309,44.824292 L 67.272589,47.991925 L 65.092141,47.97032 C 65.092035,47.30372 65.092602,46.069054 65.092602,45.928916 L 62.569096,45.927872 C 62.569096,46.066867 62.572575,47.29523 62.572682,47.954285 L 54.515661,47.877137 L 57.654916,46.090038 C 57.92005,46.549295 58.102353,46.865545 58.286223,47.183514 L 59.702988,46.365577 C 59.52073,46.050318 59.339774,45.736564 59.077145,45.281627 L 60.651536,44.385293 L 61.678117,46.163387 L 63.09493,45.345396 L 62.07381,43.57683 L 66.644822,40.975803 L 68.14352,43.571624 L 69.554763,42.744158 L 68.067047,40.16734 L 68.105101,40.145372 L 70.607272,38.72611 L 78.175627,38.857198 L 78.205092,37.217418 L 73.398729,37.127148 L 76.129173,35.576132 L 80.208808,36.098529 L 80.41131,34.473022 L 78.507706,34.228191 L 80.69066,32.980516 L 79.882195,31.558288 L 77.332444,33.005034 L 78.2078,30.788145 L 76.681197,30.1862 L 75.063962,34.302062 L 72.514262,35.74881 L 74.286787,32.253265 L 72.820885,31.514821 L 69.935931,37.211954 L 67.249111,38.750582 L 65.854735,36.335446 L 64.428447,37.158907 L 65.817357,39.564562 L 61.255873,42.160072 L 60.377503,40.638727 L 58.951211,41.462234 L 59.824071,42.974051 L 58.259154,43.86487 C 58.089443,43.570738 57.753049,42.988104 57.715719,42.923555 L 56.299015,43.741486 C 56.335973,43.805519 56.669818,44.383726 56.836979,44.673272 L 52.903002,46.906515 L 57.165988,39.665653 C 58.024116,40.160309 58.607785,40.496031 59.198955,40.837375 L 60.469385,38.645995 C 59.885131,38.30861 59.305154,37.977669 58.456925,37.487803 L 59.563833,35.606271 L 62.779253,37.464534 L 64.040148,35.278564 L 60.845189,33.43384 L 64.330996,27.503909 L 68.967703,30.176982 L 70.228549,27.991066 L 65.621881,25.326006 L 67.510025,22.118608 L 77.722618,17.870514 L 76.746737,15.543408 L 69.644301,18.502963 L 71.897374,14.653899 L 71.9069,14.648374 L 77.778529,12.982571 L 77.086781,10.554843 L 73.764021,11.497043 L 75.607604,8.366066 L 73.425747,7.0902267 L 71.305006,10.685409 L 70.223552,6.6823504 L 67.779375,7.3455144 L 69.515458,13.73434 L 67.435323,17.268039 L 66.358658,10.967561 L 63.871171,11.402142 L 65.448422,20.633858 L 65.252476,20.975201 L 63.430445,24.055629 L 59.120089,21.574491 L 57.849667,23.765879 L 62.145079,26.243006 L 61.778748,26.860207 L 58.659273,32.172992 L 55.887651,30.578403 L 54.626749,32.764266 L 57.368443,34.350893 L 56.265484,36.217434 C 55.688216,35.884051 54.618478,35.267115 54.497334,35.197148 L 53.232481,37.39801 C 53.352581,37.467402 54.412898,38.078042 54.980124,38.404811 L 52.672958,42.335868 L 50.418429,46.160368 L 50.79689,41.238379 C 51.32367,41.274771 51.686201,41.299651 52.051541,41.325426 L 52.169508,39.685229 C 51.808588,39.659774 51.449702,39.638116 50.929848,39.602247 L 51.058014,37.804062 L 53.108271,37.951487 L 53.22623,36.311344 L 51.191023,36.167823 L 51.589893,30.929797 L 54.578704,31.143911 L 54.696715,29.503769 L 51.722849,29.293663 L 51.94691,26.387836 L 56.301618,20.184332 L 54.956015,19.237032 L 52.196788,23.175542 L 52.441611,20.042166 L 55.163835,16.961838 L 53.927822,15.875126 L 52.64735,17.32437 L 52.840376,14.804132 L 51.209768,14.680656 L 50.976233,17.591948 L 49.643806,15.635448 L 48.287436,16.558027 L 50.779508,20.215729 L 50.555502,23.121557 L 48.648719,19.709094 L 47.220974,20.507976 L 50.324882,26.081839 L 50.082654,29.175698 L 47.306348,28.978291 L 47.197855,30.61297 L 49.959172,30.806366 L 49.550828,36.049858 L 47.807095,35.928252 L 47.698657,37.562976 L 49.432869,37.690053 L 49.289658,39.484236 C 48.952114,39.461065 48.28238,39.41666 48.208099,39.411402 L 48.090081,41.051597 C 48.163847,41.056856 48.829047,41.10699 49.162165,41.129896 L 48.917387,44.263263 L 48.859444,45.019308 L 45.404611,38.925492 C 46.267839,38.427089 46.854847,38.08819 47.448884,37.745182 L 46.186264,35.55822 C 45.597698,35.898058 45.015692,36.234037 44.160948,36.727551 L 43.08751,34.824415 L 46.31089,32.963391 L 45.048277,30.776431 L 41.843898,32.62652 L 38.458926,26.631721 L 43.089538,23.958231 L 41.826871,21.77127 L 37.215308,24.43378 L 36.275091,22.783384 L 35.373338,21.199466 L 35.367821,21.189938 L 36.810194,10.227559 L 34.301617,9.900995 L 33.30877,17.535776 L 31.114,13.668332 L 32.616865,7.7295003 L 30.16014,7.1194807 L 29.314459,10.485663 L 27.520384,7.3123546 L 25.322487,8.555921 z "
     id="path11444" />
</svg>
